<svg id="visual" viewBox="0 0 1440 900" width="1440" height="900" xmlns="http://www.w3.org/2000/svg" xmlns:xlink="http://www.w3.org/1999/xlink" version="1.1"><path d="M0 217L60 194.5C120 172 240 127 360 130C480 133 600 184 720 247C840 310 960 385 1080 364C1200 343 1320 226 1380 167.5L1440 109L1440 0L1380 0C1320 0 1200 0 1080 0C960 0 840 0 720 0C600 0 480 0 360 0C240 0 120 0 60 0L0 0Z" fill="#0e1012"></path><path d="M0 289L60 280C120 271 240 253 360 278.5C480 304 600 373 720 427C840 481 960 520 1080 505C1200 490 1320 421 1380 386.5L1440 352L1440 107L1380 165.5C1320 224 1200 341 1080 362C960 383 840 308 720 245C600 182 480 131 360 128C240 125 120 170 60 192.5L0 215Z" fill="#141619"></path><path d="M0 730L60 701.5C120 673 240 616 360 602.5C480 589 600 619 720 658C840 697 960 745 1080 745C1200 745 1320 697 1380 673L1440 649L1440 350L1380 384.5C1320 419 1200 488 1080 503C960 518 840 479 720 425C600 371 480 302 360 276.5C240 251 120 269 60 278L0 287Z" fill="#181a1e"></path><path d="M0 838L60 817C120 796 240 754 360 751C480 748 600 784 720 806.5C840 829 960 838 1080 817C1200 796 1320 745 1380 719.5L1440 694L1440 647L1380 671C1320 695 1200 743 1080 743C960 743 840 695 720 656C600 617 480 587 360 600.5C240 614 120 671 60 699.5L0 728Z" fill="#141619"></path><path d="M0 901L60 901C120 901 240 901 360 901C480 901 600 901 720 901C840 901 960 901 1080 901C1200 901 1320 901 1380 901L1440 901L1440 692L1380 717.5C1320 743 1200 794 1080 815C960 836 840 827 720 804.5C600 782 480 746 360 749C240 752 120 794 60 815L0 836Z" fill="#0e1012"></path></svg>